<?xml version="1.0"?>
<svg version="1.1" xmlns="http://www.w3.org/2000/svg" width="278" height="77" style=""><path fill="#008ff5" d="M18.432,37.213l15.741,0l0-2.046l-17.787,0l0,0.396l0,22.737l2.046,0l0-10.296l8.349,0l0-2.145l-8.349,0l0-8.646z M48.02772,46.717l2.475,0q2.508,0,4.158-1.65t1.65-4.158q0-2.211-1.65-3.96q-1.749-1.815-4.158-1.815l-10.329,0l-2.046,0l0,23.166l2.046,0l0-11.583l5.379,0l7.029,11.583l2.475,0z M40.17372,44.671l0-7.458l10.329,0q1.518,0,2.673,1.089q1.089,1.089,1.089,2.607q0,1.584-1.089,2.673q-1.155,1.089-2.673,1.089l-10.329,0z M63.07044,51.964q0-1.584,1.122-2.871q1.122-1.353,2.706-1.353l0.429,0l6.171,0l0-2.046l-6.171,0l-0.429,0q-1.683-0.33-2.7555-1.452t-1.0725-2.673q0-1.947,1.1385-3.0855t3.1185-1.1385l11.22,0l0-2.079l-11.22,0q-2.541,0-4.422,1.881q-1.881,1.815-1.881,4.422q0,1.65,0.627,3.003t1.848,1.947q-1.221,0.891-1.848,2.343t-0.627,3.102q0,2.574,1.881,4.389q1.914,1.914,4.422,1.914l11.22,0l0-2.178l-11.22,0q-1.98,0-3.1185-1.122t-1.1385-3.003z M84.68016,51.964q0-1.584,1.122-2.871q1.122-1.353,2.706-1.353l0.429,0l6.171,0l0-2.046l-6.171,0l-0.429,0q-1.683-0.33-2.7555-1.452t-1.0725-2.673q0-1.947,1.1385-3.0855t3.1185-1.1385l11.22,0l0-2.079l-11.22,0q-2.541,0-4.422,1.881q-1.881,1.815-1.881,4.422q0,1.65,0.627,3.003t1.848,1.947q-1.221,0.891-1.848,2.343t-0.627,3.102q0,2.574,1.881,4.389q1.914,1.914,4.422,1.914l11.22,0l0-2.178l-11.22,0q-1.98,0-3.1185-1.122t-1.1385-3.003z M133.7076,35.167l-2.079,0l0,14.091q0,3.036-2.112,5.082q-2.079,1.98-4.95,1.98q-3.135,0-5.049-1.98q-1.947-2.013-1.947-5.082l0-14.091l-2.112,0l0,14.091q0,3.762,2.574,6.402q2.607,2.706,6.534,2.706q3.663,0,6.435-2.706q2.706-2.64,2.706-6.402l0-14.091z M156.30732,35.2l-2.046,0l0,2.442q0,3.036-2.112,5.082q-2.079,1.98-4.95,1.98q-3.069,0-5.049-1.98t-1.98-5.082l0-2.442l-2.046,0l0,2.442q0,3.696,2.244,6.27q2.211,2.607,5.61,2.838l0,11.583l2.079,0l0-11.583q3.465-0.264,5.841-2.838q2.409-2.574,2.409-6.27l0-2.442z M171.87804,37.18l6.369,0l0-2.079l-6.369,0q-4.752,0-8.052,3.366q-3.333,3.399-3.333,8.481q0,4.719,3.333,8.052t8.052,3.333l4.224,0l2.145,0l0-2.112l0-10.56l-2.145,0l-5.049,0l0,2.112l5.049,0l0,8.448l-4.224,0q-3.762,0-6.501-2.739t-2.739-6.534q0-4.125,2.739-6.963q2.706-2.805,6.501-2.805z M201.93576,35.134l-2.079,0l0,10.56l-13.926,0l0-10.56l-2.079,0l0,23.166l2.079,0l0-10.527l13.926,0l0,10.527l2.079,0l0-23.166z M225.75648,35.167l-2.079,0l0,14.091q0,3.036-2.112,5.082q-2.079,1.98-4.95,1.98q-3.135,0-5.049-1.98q-1.947-2.013-1.947-5.082l0-14.091l-2.112,0l0,14.091q0,3.762,2.574,6.402q2.607,2.706,6.534,2.706q3.663,0,6.435-2.706q2.706-2.64,2.706-6.402l0-14.091z M240.9972,46.717l2.475,0q2.508,0,4.158-1.65t1.65-4.158q0-2.211-1.65-3.96q-1.749-1.815-4.158-1.815l-10.329,0l-2.046,0l0,23.166l2.046,0l0-11.583l5.379,0l7.029,11.583l2.475,0z M233.1432,44.671l0-7.458l10.329,0q1.518,0,2.673,1.089q1.089,1.089,1.089,2.607q0,1.584-1.089,2.673q-1.155,1.089-2.673,1.089l-10.329,0z"/><path fill="#eeff00" d=""/></svg>
